<svg xmlns="http://www.w3.org/2000/svg" xmlns:xlink="http://www.w3.org/1999/xlink">
  <symbol xmlns="http://www.w3.org/2000/svg" viewBox="0 0 16 16" id="github">
    <path fill-rule="evenodd" clip-rule="evenodd" fill="currentColor"
          d="M8,0.2c-4.4,0-8,3.6-8,8c0,3.5,2.3,6.5,5.5,7.6 C5.9,15.9,6,15.6,6,15.4c0-0.2,0-0.7,0-1.4C3.8,14.5,3.3,13,3.3,13c-0.4-0.9-0.9-1.2-0.9-1.2c-0.7-0.5,0.1-0.5,0.1-0.5 c0.8,0.1,1.2,0.8,1.2,0.8C4.4,13.4,5.6,13,6,12.8c0.1-0.5,0.3-0.9,0.5-1.1c-1.8-0.2-3.6-0.9-3.6-4c0-0.9,0.3-1.6,0.8-2.1 c-0.1-0.2-0.4-1,0.1-2.1c0,0,0.7-0.2,2.2,0.8c0.6-0.2,1.3-0.3,2-0.3c0.7,0,1.4,0.1,2,0.3c1.5-1,2.2-0.8,2.2-0.8 c0.4,1.1,0.2,1.9,0.1,2.1c0.5,0.6,0.8,1.3,0.8,2.1c0,3.1-1.9,3.7-3.7,3.9C9.7,12,10,12.5,10,13.2c0,1.1,0,1.9,0,2.2 c0,0.2,0.1,0.5,0.6,0.4c3.2-1.1,5.5-4.1,5.5-7.6C16,3.8,12.4,0.2,8,0.2z"/>
  </symbol>
  <symbol xmlns="http://www.w3.org/2000/svg" viewBox="0 0 231 248" id="mastodon">
    <path fill="currentColor"
          d="M115.833 0c31.637.258 62.09 3.684 79.826 11.83 0 0 35.174 15.735 35.174 69.42 0 0 .007.67.008 1.895v.935c-.015 9.535-.422 41.18-4.914 64.28-3.392 17.458-30.392 36.563-61.4 40.265-16.17 1.93-32.09 3.703-49.065 2.924-27.762-1.271-49.67-6.626-49.67-6.626 0 2.703.167 5.276.5 7.682 3.538 26.852 26.234 28.964 48.144 29.759l1.34.047c22.074.756 41.778-5.303 42.557-5.546l.024-.007.925 20.363s-15.755 8.46-43.82 10.016c-15.477.85-34.693-.39-57.073-6.314C9.847 228.075 1.499 176.332.222 123.831A795.593 795.593 0 0 1 0 104.588v-2.63c.01-7.402.073-14.374.073-20.707 0-53.685 35.174-69.422 35.174-69.422C52.983 3.684 83.417.26 115.055 0h.778Zm35.761 41.948c-13.18 0-23.16 5.065-29.758 15.197l-6.416 10.754-6.414-10.754c-6.6-10.133-16.579-15.197-29.758-15.197-11.39 0-20.566 4.004-27.573 11.814-6.795 7.811-10.177 18.368-10.177 31.654v65.003h25.754V87.326c0-13.3 5.595-20.05 16.789-20.05 12.375 0 18.58 8.007 18.58 23.842v34.536h25.601V91.118c0-15.835 6.203-23.842 18.578-23.842 11.194 0 16.79 6.75 16.79 20.05v63.093h25.753V85.416c0-13.286-3.382-23.844-10.176-31.654-7.008-7.811-16.184-11.814-27.573-11.814Z"/>
  </symbol>
  <symbol xmlns="http://www.w3.org/2000/svg" viewBox="0 0 16 16" id="rss">
    <g fill="currentColor">
      <circle cx="3" cy="13" r="2"/>
      <path d="M15 15h-2.7C12.3 8.8 7.2 3.7 1 3.7V1c7.7 0 14 6.3 14 14z"/>
      <path d="M10.3 15H7.7c0-3.7-3-6.7-6.7-6.7V5.7c5.1 0 9.3 4.2 9.3 9.3z"/>
    </g>
  </symbol>
  <symbol xmlns="http://www.w3.org/2000/svg" viewBox="0 0 512 512" id="bandcamp">
    <path fill="currentColor" d="M256 8C119 8 8 119 8 256S119 504 256 504 504 393 504 256 393 8 256 8zm48.2 326.1h-181L207.9 178h181z"/>
  </symbol>
</svg>
